{
  "accessors": [
    {
      "bufferView": 2,
      "componentType": 5126,
      "count": 2075,
      "max": [
        1.0207949876785278,
        3.474768877029419,
        1.020795226097107
      ],
      "min": [
        -1.020795226097107,
        2.906933069229126,
        -1.020795226097107
      ],
      "type": "VEC3"
    },
    {
      "bufferView": 2,
      "byteOffset": 24900,
      "componentType": 5126,
      "count": 2075,
      "max": [
        0.9999943375587463,
        1.0,
        1.0
      ],
      "min": [
        -0.9999908804893494,
        -0.993381142616272,
        -1.0
      ],
      "type": "VEC3"
    },
    {
      "bufferView": 1,
      "componentType": 5126,
      "count": 2075,
      "max": [
        0.7129732966423035,
        1.0
      ],
      "min": [
        0.0,
        0.0
      ],
      "type": "VEC2"
    },
    {
      "bufferView": 0,
      "componentType": 5125,
      "count": 11412,
      "type": "SCALAR"
    },
    {
      "bufferView": 2,
      "byteOffset": 49800,
      "componentType": 5126,
      "count": 717,
      "max": [
        0.9621772170066833,
        3.0557405948638916,
        0.960966944694519
      ],
      "min": [
        -0.9621771574020386,
        0.006400689482688904,
        -0.960966944694519
      ],
      "type": "VEC3"
    },
    {
      "bufferView": 2,
      "byteOffset": 58404,
      "componentType": 5126,
      "count": 717,
      "max": [
        0.9967979788780212,
        0.9937625527381897,
        0.9967979788780212
      ],
      "min": [
        -0.9967979192733765,
        -1.0,
        -0.9967978596687317
      ],
      "type": "VEC3"
    },
    {
      "bufferView": 1,
      "byteOffset": 16600,
      "componentType": 5126,
      "count": 717,
      "max": [
        0.9935638308525085,
        0.96184241771698
      ],
      "min": [
        0.557602047920227,
        0.0048828125
      ],
      "type": "VEC2"
    },
    {
      "bufferView": 0,
      "byteOffset": 45648,
      "componentType": 5125,
      "count": 3900,
      "type": "SCALAR"
    },
    {
      "bufferView": 2,
      "byteOffset": 67008,
      "componentType": 5126,
      "count": 63,
      "max": [
        0.6587594747543335,
        0.17265528440475464,
        0.6579307317733765
      ],
      "min": [
        -0.6587594747543335,
        0.16394567489624023,
        -0.657930850982666
      ],
      "type": "VEC3"
    },
    {
      "bufferView": 2,
      "byteOffset": 67764,
      "componentType": 5126,
      "count": 63,
      "max": [
        0.9921481013298035,
        -0.09636415541172028,
        0.9921589493751526
      ],
      "min": [
        -0.9921479225158691,
        -0.36165279150009155,
        -0.9921588897705078
      ],
      "type": "VEC3"
    },
    {
      "bufferView": 1,
      "byteOffset": 22336,
      "componentType": 5126,
      "count": 63,
      "max": [
        0.9951171875,
        0.8451862335205078
      ],
      "min": [
        0.993563711643219,
        0.0048828125
      ],
      "type": "VEC2"
    },
    {
      "bufferView": 0,
      "byteOffset": 61248,
      "componentType": 5125,
      "count": 240,
      "type": "SCALAR"
    },
    {
      "bufferView": 2,
      "byteOffset": 68520,
      "componentType": 5126,
      "count": 273,
      "max": [
        0.9154219031333923,
        2.980823516845703,
        0.9142703413963318
      ],
      "min": [
        -0.9154217839241028,
        0.17265528440475464,
        -0.9142704606056213
      ],
      "type": "VEC3"
    },
    {
      "bufferView": 2,
      "byteOffset": 71796,
      "componentType": 5126,
      "count": 273,
      "max": [
        0.9926934838294983,
        -0.09054221957921982,
        0.9927037954330444
      ],
      "min": [
        -0.9926934242248535,
        -0.1761678010225296,
        -0.9927037358283997
      ],
      "type": "VEC3"
    },
    {
      "bufferView": 1,
      "byteOffset": 22840,
      "componentType": 5126,
      "count": 273,
      "max": [
        0.5517293810844421,
        0.9143031239509583
      ],
      "min": [
        0.0048828125,
        0.0048828125
      ],
      "type": "VEC2"
    },
    {
      "bufferView": 0,
      "byteOffset": 62208,
      "componentType": 5125,
      "count": 1440,
      "type": "SCALAR"
    }
  ],
  "asset": {
    "extras": {
      "author": "rohithbunty (https://sketchfab.com/rohithbunty)",
      "license": "CC-BY-4.0 (http://creativecommons.org/licenses/by/4.0/)",
      "source": "https://sketchfab.com/3d-models/coffe-cup-eea352fdc704479b99733b4d2e7e6dc5",
      "title": "coffe cup"
    },
    "generator": "Sketchfab-12.67.0",
    "version": "2.0"
  },
  "bufferViews": [
    {
      "buffer": 0,
      "byteLength": 67968,
      "name": "floatBufferViews",
      "target": 34963
    },
    {
      "buffer": 0,
      "byteLength": 25024,
      "byteOffset": 67968,
      "byteStride": 8,
      "name": "floatBufferViews",
      "target": 34962
    },
    {
      "buffer": 0,
      "byteLength": 75072,
      "byteOffset": 92992,
      "byteStride": 12,
      "name": "floatBufferViews",
      "target": 34962
    }
  ],
  "buffers": [
    {
      "byteLength": 168064,
      "uri": "scene.bin"
    }
  ],
  "images": [
    {
      "uri": "textures/lambert3_baseColor.png"
    }
  ],
  "materials": [
    {
      "doubleSided": true,
      "name": "phong1",
      "pbrMetallicRoughness": {
        "baseColorFactor": [
          0.0839161,
          0.0560574,
          0.0394406,
          1.0
        ],
        "metallicFactor": 0.0,
        "roughnessFactor": 0.36104804793654544
      }
    },
    {
      "doubleSided": true,
      "emissiveFactor": [
        0.0324675,
        0.0324675,
        0.0324675
      ],
      "name": "lambert2",
      "pbrMetallicRoughness": {
        "metallicFactor": 0.0,
        "roughnessFactor": 0.6
      }
    },
    {
      "doubleSided": true,
      "name": "lambert3",
      "pbrMetallicRoughness": {
        "baseColorTexture": {
          "index": 0
        },
        "metallicFactor": 0.0,
        "roughnessFactor": 0.6
      }
    },
    {
      "doubleSided": true,
      "name": "lambert4",
      "pbrMetallicRoughness": {
        "baseColorTexture": {
          "index": 0
        },
        "metallicFactor": 0.0,
        "roughnessFactor": 0.9558453919843234
      }
    }
  ],
  "meshes": [
    {
      "name": "cup_lid1_phong1_0",
      "primitives": [
        {
          "attributes": {
            "NORMAL": 1,
            "POSITION": 0,
            "TEXCOORD_0": 2
          },
          "indices": 3,
          "material": 0,
          "mode": 4
        }
      ]
    },
    {
      "name": "cup_lid1_lambert2_0",
      "primitives": [
        {
          "attributes": {
            "NORMAL": 5,
            "POSITION": 4,
            "TEXCOORD_0": 6
          },
          "indices": 7,
          "material": 1,
          "mode": 4
        }
      ]
    },
    {
      "name": "cup_lid1_lambert3_0",
      "primitives": [
        {
          "attributes": {
            "NORMAL": 9,
            "POSITION": 8,
            "TEXCOORD_0": 10
          },
          "indices": 11,
          "material": 2,
          "mode": 4
        }
      ]
    },
    {
      "name": "cup_lid1_lambert4_0",
      "primitives": [
        {
          "attributes": {
            "NORMAL": 13,
            "POSITION": 12,
            "TEXCOORD_0": 14
          },
          "indices": 15,
          "material": 3,
          "mode": 4
        }
      ]
    }
  ],
  "nodes": [
    {
      "children": [
        1
      ],
      "matrix": [
        1.0,
        3.5707495248565405e-32,
        -1.6081226229577292e-16,
        0.0,
        -1.6081226229577292e-16,
        2.220446049250313e-16,
        -1.0,
        0.0,
        0.0,
        1.0,
        2.220446049250313e-16,
        0.0,
        8.470329472543003e-22,
        1.88079096131566e-37,
        -8.470329472543003e-22,
        1.0
      ],
      "name": "Sketchfab_model"
    },
    {
      "children": [
        2
      ],
      "matrix": [
        1.0,
        0.0,
        0.0,
        0.0,
        0.0,
        0.0,
        1.0,
        0.0,
        0.0,
        -1.0,
        0.0,
        0.0,
        0.0,
        0.0,
        0.0,
        1.0
      ],
      "name": "249d7b2a6b804160ba90f56d6972cf78.fbx"
    },
    {
      "children": [
        3
      ],
      "name": "RootNode"
    },
    {
      "children": [
        4,
        5,
        6,
        7
      ],
      "name": "cup_lid1"
    },
    {
      "mesh": 0,
      "name": "cup_lid1_phong1_0"
    },
    {
      "mesh": 1,
      "name": "cup_lid1_lambert2_0"
    },
    {
      "mesh": 2,
      "name": "cup_lid1_lambert3_0"
    },
    {
      "mesh": 3,
      "name": "cup_lid1_lambert4_0"
    }
  ],
  "samplers": [
    {
      "magFilter": 9729,
      "minFilter": 9987,
      "wrapS": 10497,
      "wrapT": 10497
    }
  ],
  "scene": 0,
  "scenes": [
    {
      "name": "Sketchfab_Scene",
      "nodes": [
        0
      ]
    }
  ],
  "textures": [
    {
      "sampler": 0,
      "source": 0
    }
  ]
}
