{
    "asset" : {
        "generator" : "Khronos glTF Blender I/O v1.8.19",
        "version" : "2.0"
    },
    "scene" : 0,
    "scenes" : [
        {
            "name" : "Scene",
            "nodes" : [
                0,
                1,
                2
            ]
        }
    ],
    "nodes" : [
        {
            "mesh" : 0,
            "name" : "Coffee_Cup v6",
            "rotation" : [
                -0.0014963254798203707,
                0.9999769926071167,
                0.0066316332668066025,
                -9.923108336806763e-06
            ]
        },
        {
            "mesh" : 1,
            "name" : "back_sticker",
            "rotation" : [
                0.5,
                0.5,
                -0.5,
                0.4999999701976776
            ],
            "scale" : [
                4.662773609161377,
                4.662773609161377,
                4.662773609161377
            ],
            "translation" : [
                2.2734947204589844,
                3.5892281532287598,
                0
            ]
        },
        {
            "mesh" : 2,
            "name" : "texto_prueba",
            "rotation" : [
                -0.49989306926727295,
                0.500106930732727,
                -0.500106930732727,
                -0.49989303946495056
            ],
            "scale" : [
                4.236437797546387,
                4.236437797546387,
                4.236437797546387
            ],
            "translation" : [
                -2.0319061279296875,
                3.6586878299713135,
                0.012253128923475742
            ]
        }
    ],
    "materials" : [
        {
            "doubleSided" : true,
            "name" : "Rubber_-_White",
            "pbrMetallicRoughness" : {
                "baseColorFactor" : [
                    0.800000011920929,
                    0.800000011920929,
                    0.800000011920929,
                    1
                ],
                "metallicFactor" : 0,
                "roughnessFactor" : 0.5
            }
        },
        {
            "doubleSided" : true,
            "name" : "White",
            "pbrMetallicRoughness" : {
                "baseColorFactor" : [
                    0.06662579625844955,
                    0.08228261023759842,
                    0.17788837850093842,
                    1
                ],
                "metallicFactor" : 0,
                "roughnessFactor" : 0.5
            }
        },
        {
            "alphaMode" : "BLEND",
            "doubleSided" : true,
            "name" : "back_sticker",
            "pbrMetallicRoughness" : {
                "baseColorTexture" : {
                    "index" : 0
                },
                "metallicFactor" : 0,
                "roughnessFactor" : 0.5
            }
        },
        {
            "alphaMode" : "BLEND",
            "doubleSided" : true,
            "name" : "texto_prueba",
            "pbrMetallicRoughness" : {
                "baseColorTexture" : {
                    "index" : 1
                },
                "metallicFactor" : 0,
                "roughnessFactor" : 0.5
            }
        }
    ],
    "meshes" : [
        {
            "name" : "Coffee_Cup v6",
            "primitives" : [
                {
                    "attributes" : {
                        "POSITION" : 0,
                        "NORMAL" : 1,
                        "TEXCOORD_0" : 2
                    },
                    "indices" : 3,
                    "material" : 0
                },
                {
                    "attributes" : {
                        "POSITION" : 4,
                        "NORMAL" : 5,
                        "TEXCOORD_0" : 6
                    },
                    "indices" : 7,
                    "material" : 1
                }
            ]
        },
        {
            "name" : "back_sticker",
            "primitives" : [
                {
                    "attributes" : {
                        "POSITION" : 8,
                        "NORMAL" : 9,
                        "TEXCOORD_0" : 10
                    },
                    "indices" : 11,
                    "material" : 2
                }
            ]
        },
        {
            "name" : "texto_prueba",
            "primitives" : [
                {
                    "attributes" : {
                        "POSITION" : 12,
                        "NORMAL" : 13,
                        "TEXCOORD_0" : 14
                    },
                    "indices" : 11,
                    "material" : 3
                }
            ]
        }
    ],
    "textures" : [
        {
            "sampler" : 0,
            "source" : 0
        },
        {
            "sampler" : 0,
            "source" : 1
        }
    ],
    "images" : [
        {
            "bufferView" : 12,
            "mimeType" : "image/png",
            "name" : "back_sticker"
        },
        {
            "bufferView" : 16,
            "mimeType" : "image/png",
            "name" : "texto_prueba"
        }
    ],
    "accessors" : [
        {
            "bufferView" : 0,
            "componentType" : 5126,
            "count" : 9063,
            "max" : [
                2.0593180656433105,
                7.640017986297607,
                2.0391581058502197
            ],
            "min" : [
                -2.0656819343566895,
                6.890017986297607,
                -2.0844790935516357
            ],
            "type" : "VEC3"
        },
        {
            "bufferView" : 1,
            "componentType" : 5126,
            "count" : 9063,
            "type" : "VEC3"
        },
        {
            "bufferView" : 2,
            "componentType" : 5126,
            "count" : 9063,
            "type" : "VEC2"
        },
        {
            "bufferView" : 3,
            "componentType" : 5123,
            "count" : 34548,
            "type" : "SCALAR"
        },
        {
            "bufferView" : 4,
            "componentType" : 5126,
            "count" : 868,
            "max" : [
                1.9005589485168457,
                6.921154022216797,
                1.9014229774475098
            ],
            "min" : [
                -1.9035799503326416,
                -0.0020310000982135534,
                -1.9014229774475098
            ],
            "type" : "VEC3"
        },
        {
            "bufferView" : 5,
            "componentType" : 5126,
            "count" : 868,
            "type" : "VEC3"
        },
        {
            "bufferView" : 6,
            "componentType" : 5126,
            "count" : 868,
            "type" : "VEC2"
        },
        {
            "bufferView" : 7,
            "componentType" : 5123,
            "count" : 3324,
            "type" : "SCALAR"
        },
        {
            "bufferView" : 8,
            "componentType" : 5126,
            "count" : 289,
            "max" : [
                0.31577277183532715,
                -0.10560508817434311,
                0.4999999701976776
            ],
            "min" : [
                -0.3157727122306824,
                -0.44658058881759644,
                -0.5000001192092896
            ],
            "type" : "VEC3"
        },
        {
            "bufferView" : 9,
            "componentType" : 5126,
            "count" : 289,
            "type" : "VEC3"
        },
        {
            "bufferView" : 10,
            "componentType" : 5126,
            "count" : 289,
            "type" : "VEC2"
        },
        {
            "bufferView" : 11,
            "componentType" : 5123,
            "count" : 1536,
            "type" : "SCALAR"
        },
        {
            "bufferView" : 13,
            "componentType" : 5126,
            "count" : 289,
            "max" : [
                0.28249338269233704,
                -0.053125880658626556,
                0.5000001192092896
            ],
            "min" : [
                -0.2824934124946594,
                -0.2530624270439148,
                -0.5000001788139343
            ],
            "type" : "VEC3"
        },
        {
            "bufferView" : 14,
            "componentType" : 5126,
            "count" : 289,
            "type" : "VEC3"
        },
        {
            "bufferView" : 15,
            "componentType" : 5126,
            "count" : 289,
            "type" : "VEC2"
        }
    ],
    "bufferViews" : [
        {
            "buffer" : 0,
            "byteLength" : 108756,
            "byteOffset" : 0
        },
        {
            "buffer" : 0,
            "byteLength" : 108756,
            "byteOffset" : 108756
        },
        {
            "buffer" : 0,
            "byteLength" : 72504,
            "byteOffset" : 217512
        },
        {
            "buffer" : 0,
            "byteLength" : 69096,
            "byteOffset" : 290016
        },
        {
            "buffer" : 0,
            "byteLength" : 10416,
            "byteOffset" : 359112
        },
        {
            "buffer" : 0,
            "byteLength" : 10416,
            "byteOffset" : 369528
        },
        {
            "buffer" : 0,
            "byteLength" : 6944,
            "byteOffset" : 379944
        },
        {
            "buffer" : 0,
            "byteLength" : 6648,
            "byteOffset" : 386888
        },
        {
            "buffer" : 0,
            "byteLength" : 3468,
            "byteOffset" : 393536
        },
        {
            "buffer" : 0,
            "byteLength" : 3468,
            "byteOffset" : 397004
        },
        {
            "buffer" : 0,
            "byteLength" : 2312,
            "byteOffset" : 400472
        },
        {
            "buffer" : 0,
            "byteLength" : 3072,
            "byteOffset" : 402784
        },
        {
            "buffer" : 0,
            "byteLength" : 957505,
            "byteOffset" : 405856
        },
        {
            "buffer" : 0,
            "byteLength" : 3468,
            "byteOffset" : 1363364
        },
        {
            "buffer" : 0,
            "byteLength" : 3468,
            "byteOffset" : 1366832
        },
        {
            "buffer" : 0,
            "byteLength" : 2312,
            "byteOffset" : 1370300
        },
        {
            "buffer" : 0,
            "byteLength" : 28029,
            "byteOffset" : 1372612
        }
    ],
    "samplers" : [
        {
            "magFilter" : 9729,
            "minFilter" : 9987,
            "wrapS" : 33071,
            "wrapT" : 33071
        }
    ],
    "buffers" : [
        {
            "byteLength" : 1400644,
            "uri" : "data:application/octet-stream;base64,"
        }
    ]
}
