<svg width="149" height="94" viewBox="0 0 149 94" fill="none" xmlns="http://www.w3.org/2000/svg">
<path d="M7.75963 91.7748C5.31844 81.6315 2.88492 71.4862 0.459033 61.339C-0.0821653 59.0845 3.68024 57.893 4.22402 60.1565C6.11366 68.0446 8.00407 75.9321 9.89516 83.8193C14.4475 60.5202 24.5442 36.0807 42.9632 18.6235C61.3315 1.22383 88.5713 -3.45003 111.201 2.66491C118.545 4.62919 125.355 7.82733 131.328 12.1177C137.84 16.8163 142.93 23.0265 147.903 29.1429C149.348 30.9205 145.946 32.9795 144.51 31.2123C140.215 25.9266 135.798 20.7503 130.456 16.3853C125.209 12.0981 118.916 9.02356 112.258 6.91308C100.232 3.08064 86.906 2.91037 74.0004 5.86323C61.9484 8.62517 51.7026 14.7312 43.0419 23.5718C33.7075 33.0919 26.969 44.783 21.9995 56.6157C17.9807 66.1719 15.1654 76.0869 13.316 86.0483L32.1235 71.3854C34.1276 69.8226 35.9721 72.8854 33.9841 74.4357L10.561 92.7117C9.53267 93.4985 7.99935 92.7932 7.75963 91.7748Z" fill="#00754A"/>
</svg>
