<svg width="193" height="135" viewBox="0 0 193 135" fill="none" xmlns="http://www.w3.org/2000/svg">
<path d="M1.38427 19.3627C14.2467 33.3614 27.1019 47.3562 39.9498 61.3469C42.6755 64.3147 46.5522 60.4154 43.8378 57.4589L11.8841 22.6695C26.1058 26.1906 40.383 29.1397 54.6357 32.4052C66.2163 35.0637 72.4755 45.0874 71.2408 56.0749C70.3355 64.156 66.5405 71.2692 65.3757 79.2784C64.2109 87.2877 66.4522 96.6578 74.0869 102.01C82.7191 108.044 93.7896 109.258 103.278 108.63C123.158 107.34 140.353 97.3832 160.268 96.3563C168.21 95.9441 176.915 97.9353 182.462 105.088C188.079 112.335 188.193 122.098 185.338 129.439C184.045 132.776 189.323 136.038 190.632 132.668C196.942 116.431 189.379 95.1787 169.265 91.1497C160.23 89.3424 151.185 91.127 142.85 93.2014C133.486 95.5252 124.431 98.639 115.016 100.823C104.762 103.216 93.6569 104.057 82.8214 100.35C71.2525 96.3943 69.7897 85.965 72.0651 76.4578C73.9074 68.7704 77.2422 61.7355 77.3038 53.4875C77.3849 44.024 72.3402 34.9925 63.6514 29.925C59.4007 27.4379 54.7612 26.5975 50.1917 25.6196C45.6222 24.6417 41.0419 23.6184 36.4666 22.5901C29.2283 20.9739 21.9553 19.3081 14.7239 17.511C28.893 13.7404 43.0616 9.97239 57.2293 6.20696C60.7382 5.26962 58.9019 -0.518955 55.3725 0.427592L2.40414 14.5135C1.9188 14.6234 1.48644 14.8615 1.14888 15.2047C0.811311 15.5479 0.580038 15.9845 0.477442 16.4723C0.374857 16.9601 0.404429 17.4825 0.56331 17.9889C0.722191 18.4953 1.00496 18.9685 1.38427 19.3627Z" fill="#00754A"/>
</svg>
