<svg width="153" height="142" viewBox="0 0 153 142" fill="none" xmlns="http://www.w3.org/2000/svg">
<path d="M150.488 0.633864L120.032 4.6379C116.913 5.04365 116.888 9.98499 120.032 9.58553L143.493 6.50309C134.189 18.1409 120.312 25.652 107.27 32.3201C90.525 40.8786 73.6855 49.0502 55.4375 53.9192L53.8843 54.3249C54.6987 53.0485 55.447 51.7309 56.126 50.3775C58.6821 45.2883 59.9586 39.5135 57.588 34.1318C55.1451 28.5929 48.1904 26.388 42.6569 26.0231C31.024 25.2462 15.7722 31.3954 10.2733 42.165C8.05045 46.5182 7.75805 52.1798 11.0184 56.0895C14.0839 59.7884 19.0703 61.2164 23.6355 61.9178C29.6846 62.8614 35.8029 62.6507 41.8709 61.8172C39.1639 64.8964 36.3311 67.8688 33.5612 70.8254C23.1073 81.9946 12.7759 93.1826 5.86219 106.997C2.53265 113.652 0.130636 120.95 0.00487441 128.442C-0.0737267 133.018 0.759444 139.095 5.34975 141.338C8.20454 142.744 10.6946 138.476 7.8461 137.063C5.1265 135.717 5.03846 131.716 4.97244 129.071C4.84982 124.334 6.07915 119.695 7.65432 115.269C10.9178 106.097 16.6746 97.6553 22.7772 90.1693C28.6911 82.913 35.3533 76.2858 41.6414 69.3849C44.2698 66.51 46.9674 63.5691 49.4606 60.471C53.5007 59.6029 57.4906 58.5334 61.3892 57.4011C78.9455 52.3088 95.3196 44.0302 111.515 35.6982C122.927 29.829 134.466 23.1703 143.483 13.9198C140.949 20.1759 138.453 26.4666 136.384 32.8548C135.394 35.8964 140.157 37.1891 141.154 34.1727C144.508 23.8749 148.907 13.8317 152.884 3.76664C153.422 2.37954 152 0.423125 150.488 0.633864ZM20.1393 56.0958C15.4578 54.6961 12.6942 51.5854 13.8732 46.5874C15.3258 40.4068 21.8811 36.472 27.2228 34.0532C32.0656 31.8639 37.3454 30.8138 42.6569 30.9833C47.5019 31.1626 53.3467 33.6254 53.9315 39.026C54.4722 44.0585 51.4823 49.1383 48.7595 53.1171C48.0804 54.1048 47.3636 55.0704 46.6342 56.0329C37.8591 57.8194 28.5811 58.6121 20.1393 56.0958Z" fill="#00754A"/>
</svg>
