<svg width="161" height="54" viewBox="0 0 161 54" fill="none" xmlns="http://www.w3.org/2000/svg">
<path d="M20.5797 14.832C35.1091 4.22972 53.6449 0.0586108 71.3719 0.13464C101.532 0.275223 132.532 13.8688 152.557 36.5674C149.709 26.0326 146.861 15.4967 144.013 4.95989C143.136 1.71038 148.354 1.05904 149.225 4.27828C152.933 17.9873 156.639 31.6922 160.344 45.393C160.912 47.5024 158.372 48.649 156.742 48.1581C142.097 43.7628 127.443 39.3721 112.782 34.9858C109.522 34.0294 111.546 29.174 114.769 30.1385C126.144 33.5422 137.517 36.9503 148.888 40.3627C130.663 19.5163 103.377 7.33641 75.8706 5.5305C59.7697 4.47091 43.3694 7.71571 29.2009 15.5217C22.421 19.257 16.3869 24.4481 11.9733 30.7888C8.23171 36.1597 4.56919 43.8309 7.23162 50.3566C8.50921 53.4918 3.66772 55.5299 2.38883 52.3916C-3.40309 38.1943 9.95973 22.5832 20.5797 14.832Z" fill="#00754A"/>
</svg>
