<svg width="28" height="29" viewBox="0 0 28 29" fill="none" xmlns="http://www.w3.org/2000/svg">
<path d="M5.11238 0.618164C2.28021 0.618164 -0.000244141 2.89862 -0.000244141 5.73079V23.5055C-0.000244141 26.3377 2.28021 28.6181 5.11238 28.6181H14.7461V17.6719H11.8516V13.7309H14.7461V10.3639C14.7461 7.71861 16.4563 5.28979 20.396 5.28979C21.9911 5.28979 23.1706 5.44292 23.1706 5.44292L23.0778 9.12317C23.0778 9.12317 21.8749 9.11181 20.5622 9.11181C19.1415 9.11181 18.9137 9.76639 18.9137 10.8531V13.7309H23.1907L23.0043 17.6719H18.9137V28.6182H22.8871C25.7192 28.6182 27.9997 26.3377 27.9997 23.5055V5.73081C27.9997 2.89865 25.7192 0.618192 22.8871 0.618192H5.11235L5.11238 0.618164Z" fill="white"/>
</svg>
