<svg width="1440" height="308" viewBox="0 0 1440 308" fill="none" xmlns="http://www.w3.org/2000/svg">
<path d="M1394.06 70.5919L1440 88.0833V307.618H1050.54H536.755H0V29.9244C0.79895 23.2776 3.99438 21.9075 5.49231 22.0532C10.9847 22.0532 22.5686 19.7794 24.9653 10.6838C27.3621 1.5883 42.9403 4.56183 50.4299 7.18554C59.5839 13.016 79.3896 23.2776 85.3813 17.6804C91.373 12.0831 108.849 18.2634 116.838 22.0532C123.162 23.0736 136.311 23.6275 138.308 17.6804C140.305 11.7333 162.108 8.20587 172.76 7.18554L208.211 2.37542C217.531 2.52119 239.268 4.38693 251.651 10.6838C264.033 16.9807 286.103 17.9719 295.589 17.6804L313.065 10.6838L330.541 7.18554C336.133 -4.70861 351.179 2.22964 358.003 7.18554C365.659 12.1414 382.169 20.3041 386.963 13.3075C391.756 6.311 421.581 8.64317 435.895 10.6838C448.677 -1.90999 465.52 3.10421 472.344 7.18554C498.308 1.58829 514.452 11.8499 519.279 17.6804L536.755 22.0532L553.232 37.3582L574.202 40.8565C580.028 47.5615 594.075 59.8347 603.662 55.2869C608.455 50.7391 621.304 57.1818 627.129 60.9716L639.612 64.9072C654.391 57.2109 661.748 64.0326 663.578 68.4054C674.896 74.6732 699.628 82.7484 708.017 64.9072C716.405 47.0659 742.136 47.27 753.953 49.6022C763.606 48.1446 783.711 43.6551 786.907 37.3582C790.103 31.0613 793.232 37.0667 794.397 40.8565L806.879 49.6022C823.656 59.3974 839.501 61.2631 845.326 60.9716C848.122 50.1269 858.807 52.6632 863.8 55.2869C866.963 56.5988 873.587 58.4354 874.785 55.2869C875.983 52.1384 883.273 51.9344 886.768 52.2259L907.24 49.6022C918.025 41.906 928.044 43.4802 931.706 45.2293L949.681 49.6022C952.078 44.7046 961.331 47.5615 965.659 49.6022H979.14C981.936 44.0049 999.279 44.3548 1007.6 45.2293L1025.08 34.7345C1029.07 26.3386 1037.06 29.7786 1040.55 32.5481L1057.03 40.8565C1063.36 42.3141 1078.1 44.3548 1086.49 40.8565C1094.88 37.3582 1097.64 42.3141 1097.98 45.2293H1111.96L1153.9 40.8565C1162.05 43.3344 1180.46 46.8036 1188.85 40.8565C1197.24 34.9094 1212.65 36.0464 1219.31 37.3582H1250.76C1258.75 32.4606 1273.07 35.3175 1279.22 37.3582C1284.22 37.3582 1295.6 38.0579 1301.19 40.8565C1308.18 44.3548 1306.19 44.3548 1320.17 40.8565C1331.35 38.0579 1348.13 47.27 1355.12 52.2259H1378.09L1394.06 70.5919Z" fill="#1E3932"/>
</svg>
