<svg width="31" height="31" viewBox="0 0 31 31" fill="none" xmlns="http://www.w3.org/2000/svg">
<g clip-path="url(#clip0_133_2449)">
<path d="M15.7885 11.2747C13.1326 11.2747 10.9651 13.4421 10.9651 16.0981C10.9651 18.754 13.1326 20.9214 15.7885 20.9214C18.4445 20.9214 20.6119 18.754 20.6119 16.0981C20.6119 13.4421 18.4445 11.2747 15.7885 11.2747ZM30.2551 16.0981C30.2551 14.1007 30.2732 12.1214 30.161 10.1276C30.0488 7.8118 29.5205 5.75652 27.8271 4.06309C26.1301 2.36604 24.0784 1.84136 21.7626 1.72919C19.7652 1.61702 17.7859 1.63511 15.7921 1.63511C13.7948 1.63511 11.8155 1.61702 9.8217 1.72919C7.50589 1.84136 5.45061 2.36965 3.75718 4.06309C2.06013 5.76014 1.53545 7.8118 1.42328 10.1276C1.31111 12.125 1.3292 14.1043 1.3292 16.0981C1.3292 18.0918 1.31111 20.0747 1.42328 22.0685C1.53545 24.3843 2.06375 26.4396 3.75718 28.133C5.45423 29.8301 7.50589 30.3547 9.8217 30.4669C11.8191 30.5791 13.7984 30.561 15.7921 30.561C17.7895 30.561 19.7688 30.5791 21.7626 30.4669C24.0784 30.3547 26.1337 29.8264 27.8271 28.133C29.5242 26.436 30.0488 24.3843 30.161 22.0685C30.2768 20.0747 30.2551 18.0954 30.2551 16.0981ZM15.7885 23.5195C11.6816 23.5195 8.36708 20.205 8.36708 16.0981C8.36708 11.9911 11.6816 8.67661 15.7885 8.67661C19.8955 8.67661 23.21 11.9911 23.21 16.0981C23.21 20.205 19.8955 23.5195 15.7885 23.5195ZM23.5139 10.1059C22.555 10.1059 21.7807 9.33155 21.7807 8.37266C21.7807 7.41377 22.555 6.63942 23.5139 6.63942C24.4728 6.63942 25.2472 7.41377 25.2472 8.37266C25.2474 8.60035 25.2028 8.82587 25.1158 9.03628C25.0288 9.2467 24.9011 9.43788 24.7401 9.59888C24.5791 9.75988 24.388 9.88754 24.1775 9.97455C23.9671 10.0615 23.7416 10.1062 23.5139 10.1059Z" fill="white"/>
</g>
<defs>
<clipPath id="clip0_133_2449">
<rect width="30" height="30" fill="white" transform="translate(0.666748 0.618164)"/>
</clipPath>
</defs>
</svg>
