<svg width="31" height="31" viewBox="0 0 31 31" fill="none" xmlns="http://www.w3.org/2000/svg">
<path fill-rule="evenodd" clip-rule="evenodd" d="M1.58228 4.16591C1.58228 3.55658 1.82433 2.9722 2.2552 2.54133C2.68606 2.11047 3.27044 1.86841 3.87978 1.86841H26.7823C27.0842 1.86792 27.3833 1.92699 27.6625 2.04224C27.9416 2.1575 28.1952 2.32667 28.4088 2.54008C28.6225 2.75349 28.7919 3.00694 28.9075 3.28592C29.023 3.56491 29.0824 3.86394 29.0823 4.16591V27.0684C29.0826 27.3704 29.0234 27.6696 28.908 27.9487C28.7926 28.2278 28.6233 28.4814 28.4098 28.695C28.1963 28.9087 27.9428 29.0781 27.6637 29.1936C27.3846 29.3092 27.0856 29.3686 26.7835 29.3684H3.87978C3.57796 29.3684 3.2791 29.3089 3.00027 29.1934C2.72144 29.0779 2.46811 28.9085 2.25476 28.695C2.0414 28.4816 1.87219 28.2281 1.7568 27.9493C1.64142 27.6704 1.58211 27.3715 1.58228 27.0697V4.16591ZM12.4673 12.3534H16.191V14.2234C16.7285 13.1484 18.1035 12.1809 20.1698 12.1809C24.131 12.1809 25.0698 14.3222 25.0698 18.2509V25.5284H21.061V19.1459C21.061 16.9084 20.5235 15.6459 19.1585 15.6459C17.2648 15.6459 16.4773 17.0072 16.4773 19.1459V25.5284H12.4673V12.3534ZM5.59228 25.3572H9.60228V12.1809H5.59228V25.3559V25.3572ZM10.176 7.88341C10.1836 8.22675 10.1225 8.56814 9.99633 8.88755C9.87016 9.20696 9.68147 9.49796 9.44132 9.74345C9.20117 9.98895 8.9144 10.184 8.59784 10.3172C8.28129 10.4503 7.94133 10.5189 7.5979 10.5189C7.25448 10.5189 6.91451 10.4503 6.59796 10.3172C6.2814 10.184 5.99464 9.98895 5.75449 9.74345C5.51434 9.49796 5.32564 9.20696 5.19948 8.88755C5.07331 8.56814 5.01222 8.22675 5.01978 7.88341C5.03462 7.20948 5.31276 6.56815 5.79463 6.09677C6.27651 5.62539 6.92381 5.36143 7.5979 5.36143C8.272 5.36143 8.91929 5.62539 9.40117 6.09677C9.88305 6.56815 10.1612 7.20948 10.176 7.88341Z" fill="white"/>
</svg>
