<svg width="165" height="165" viewBox="0 0 165 165" fill="none" xmlns="http://www.w3.org/2000/svg">
<ellipse cx="83.5751" cy="87.1767" rx="56.0142" ry="55.7276" fill="white"/>
<path opacity="0.6" fill-rule="evenodd" clip-rule="evenodd" d="M83.6977 3.00012C93.4841 3.03405 101.718 10.0547 110.06 15.0498C117.631 19.5833 123.283 26.3787 130.702 31.1456C139.312 36.6779 152.925 36.5877 157.565 45.5728C162.195 54.54 155.139 65.266 153.435 75.1693C152.022 83.3795 148.96 91.1192 148.297 99.4193C147.488 109.565 153.544 120.48 149.085 129.679C144.814 138.491 134.835 144.259 125.244 146.977C115.716 149.677 105.386 142.21 95.8188 144.774C85.1546 147.632 79.2399 161.258 68.2286 162.257C57.9679 163.188 48.4984 155.973 40.3578 149.805C32.4565 143.819 25.8796 136.015 21.8165 127.094C17.9595 118.625 20.1138 108.773 17.6002 99.8354C15.1097 90.9804 8.55682 83.6051 7.0368 74.543C5.38374 64.6878 2.85779 53.2742 8.38015 44.8677C14.0697 36.2067 27.0965 35.9 36.0195 30.4236C43.5779 25.7848 49.5703 19.2912 57.2625 14.8668C65.6904 10.0193 73.9157 2.96621 83.6977 3.00012Z" stroke="white" stroke-width="1.50673"/>
<path opacity="0.6" fill-rule="evenodd" clip-rule="evenodd" d="M80.1611 17.1119C89.4849 16.5782 98.9204 9.53037 107.634 12.9447C116.344 16.3575 119.217 27.5197 125.235 34.7737C130.647 41.298 137.147 46.7061 141.628 53.9233C146.325 61.4876 150.687 69.4433 152.229 78.25C153.806 87.261 153.133 96.6303 150.644 105.426C148.158 114.215 144.134 122.798 137.791 129.283C131.598 135.614 122.54 137.676 114.86 142.01C107.463 146.184 100.792 151.365 92.9492 154.586C84.2386 158.163 75.274 163.574 65.9951 162.08C56.7439 160.59 49.5798 152.992 42.7296 146.498C36.4139 140.51 32.0091 132.965 27.4318 125.52C23.0937 118.465 18.5619 111.507 16.2991 103.511C14.0339 95.5067 13.8562 87.148 14.2181 78.8269C14.589 70.299 15.216 61.6784 18.4608 53.8053C21.7707 45.7744 27.3214 39.006 33.2287 32.7011C39.3409 26.1774 45.4371 18.8205 53.861 16.0224C62.2727 13.2283 71.3258 17.6176 80.1611 17.1119Z" stroke="white" stroke-width="1.50673"/>
<path opacity="0.6" fill-rule="evenodd" clip-rule="evenodd" d="M84.2706 156.419C93.9641 157.705 103.333 164.124 112.842 161.851C122.205 159.613 129.502 151.833 135.337 144.214C140.931 136.909 142.634 127.584 145.712 118.927C148.545 110.959 152.163 103.244 152.899 94.8233C153.633 86.4194 152.073 78.0772 149.996 69.8986C147.887 61.5971 144.514 53.8274 140.552 46.2252C136.181 37.8363 133.104 27.9745 125.325 22.551C117.564 17.1405 107.137 18.1327 97.8156 16.4293C88.5146 14.7296 79.2711 10.7098 69.975 12.4361C60.6788 14.1624 52.6643 20.0609 45.4583 26.152C38.6345 31.9201 34.6585 40.0783 29.0546 47.0258C23.3176 54.1382 14.2717 59.209 11.7278 67.9693C9.1847 76.727 14.6386 85.7668 15.162 94.8676C15.7024 104.264 11.072 114.248 14.8847 122.862C18.6777 131.432 28.1709 135.886 35.7655 141.419C42.9102 146.624 50.05 152.028 58.5071 154.643C66.7979 157.207 75.6644 155.278 84.2706 156.419Z" stroke="white" stroke-width="1.50673"/>
</svg>
