<svg width="346" height="21" viewBox="0 0 346 21" fill="none" xmlns="http://www.w3.org/2000/svg">
<g clip-path="url(#clip0_342_9)">
<path fill-rule="evenodd" clip-rule="evenodd" d="M126.458 11.2115C123.098 9.48573 122.757 10.1389 121.003 6.92102C126.361 7.4808 126.361 8.50699 126.556 11.1656" fill="#EED350"/>
<path fill-rule="evenodd" clip-rule="evenodd" d="M126.4 14.6636C129.858 12.8911 130.198 13.544 132 10.2789C126.546 10.8387 126.546 11.9116 126.351 14.5694" fill="#EED350"/>
<path fill-rule="evenodd" clip-rule="evenodd" d="M126.723 8.7168C129.207 7.45741 129.45 7.92381 130.716 5.59155C126.82 6.01126 126.82 6.75756 126.674 8.67061" fill="#EED350"/>
<path fill-rule="evenodd" clip-rule="evenodd" d="M126.487 7.00012C124.052 5.74074 123.76 6.20714 122.494 3.87488C126.39 4.24815 126.39 5.04088 126.536 6.95394" fill="#EED350"/>
<path d="M126.084 2C126.084 3.4459 126.463 4.65884 126.463 6.10474C126.531 9.36955 125.946 12.915 125.946 16.1334H126.394C126.291 12.8216 126.842 9.22998 126.738 5.82485C126.668 4.47334 126.118 3.30608 126.084 2Z" fill="#EED350"/>
<path d="M126.032 15.4496C126.018 15.6244 125.992 15.7981 125.954 15.9695C125.918 16.138 125.86 16.3018 125.784 16.4576C125.709 16.6109 125.605 16.7496 125.477 16.8667C125.347 16.983 125.193 17.0712 125.024 17.1254C124.857 17.1834 124.664 17.1988 124.475 17.2602C124.285 17.3215 124.124 17.4285 123.965 17.5242C123.647 17.7162 123.296 17.8583 122.948 17.9999C123.306 17.8818 123.666 17.7637 124.005 17.5898C124.172 17.5032 124.335 17.4131 124.509 17.369C124.684 17.3248 124.875 17.322 125.07 17.2703C125.266 17.2211 125.449 17.1322 125.607 17.0096C125.763 16.8851 125.894 16.7341 125.993 16.5641C126.091 16.3971 126.168 16.2197 126.222 16.0356C126.276 15.8548 126.318 15.6706 126.346 15.4844L126.032 15.4496Z" fill="#EED350"/>
<path d="M128.082 17.9326L127.347 17.661C127.227 17.6186 127.109 17.5674 126.997 17.5078C126.891 17.4512 126.801 17.3712 126.733 17.2746C126.667 17.179 126.622 17.0682 126.578 16.9511C126.535 16.837 126.5 16.7204 126.473 16.602C126.417 16.3668 126.402 16.1266 126.402 15.8807L126.086 15.8961C126.112 16.1515 126.157 16.4138 126.244 16.6626C126.287 16.786 126.338 16.9067 126.397 17.024C126.454 17.1381 126.517 17.2592 126.608 17.3652C126.698 17.4704 126.814 17.5538 126.944 17.6085C127.067 17.6594 127.194 17.7008 127.324 17.7325L128.082 17.9326Z" fill="#EED350"/>
</g>
<path fill-rule="evenodd" clip-rule="evenodd" d="M266.436 11.3601C267.043 13.0545 265.309 14.3032 264.008 13.7679C263.575 14.9273 263.315 16.2651 263.922 17.6028H262.361C262.881 16.5326 262.968 15.3732 262.274 13.9463C260.54 14.7489 258.893 12.6979 260.02 11.0926C258.98 9.93319 259.587 8.14951 261.234 8.14951C261.321 5.83078 264.789 5.83078 264.875 8.23863C266.609 7.88183 267.736 10.1114 266.436 11.3599L266.436 11.3601ZM263.835 13.5897C263.661 13.5006 263.575 13.4113 263.488 13.3222L263.575 14.2141L263.835 13.5897L263.835 13.5897ZM262.968 13.4113C262.881 13.5897 262.708 13.6789 262.621 13.7681C262.708 14.0357 262.794 14.2141 262.881 14.4816L262.968 13.4113L262.968 13.4113Z" fill="#EED350"/>
<path fill-rule="evenodd" clip-rule="evenodd" d="M249.451 7.95697C249.232 7.91875 248.996 7.92056 248.749 7.97139C248.656 5.39302 244.943 5.39302 244.85 7.87596C243.086 7.87596 242.436 9.78597 243.55 11.0274C242.343 12.7464 244.107 14.9427 245.964 14.0833C246.707 15.6113 246.614 16.8527 246.057 17.9988H247.728C247.078 16.5663 247.356 15.1338 247.821 13.8923C249.017 14.3847 250.556 13.4672 250.554 12.0484C249.263 11.2499 248.579 9.48388 249.451 7.95697ZM247.265 13.4161C247.357 13.5112 247.45 13.6064 247.635 13.7015L247.635 13.7015L247.356 14.37L247.264 13.415L247.265 13.4161ZM246.706 13.5109C246.706 13.5107 246.707 13.5106 246.707 13.5104L246.706 13.5104L246.706 13.5109ZM246.706 13.5109C246.642 13.6438 246.532 13.7304 246.44 13.803C246.4 13.8346 246.363 13.8636 246.335 13.8925C246.382 14.0358 246.428 14.1552 246.474 14.2746C246.521 14.3939 246.567 14.5133 246.614 14.6565L246.706 13.5109Z" fill="#EED350"/>
<path fill-rule="evenodd" clip-rule="evenodd" d="M260.872 7.81828C259.287 7.96874 258.514 10.0251 259.688 11.2334L259.688 11.2336C259.659 11.315 259.635 11.3954 259.616 11.4747C258.808 12.0201 257.752 12.1958 256.805 11.8145C256.148 13.7475 255.678 15.777 256.617 18H254.081C254.926 16.357 255.02 14.4242 254.081 12.1048C251.262 13.4578 248.537 10.0753 250.323 7.56256C248.632 5.72635 249.665 2.82687 252.296 2.82687C252.484 -0.942291 258.027 -0.942291 258.121 2.82687C260.88 2.35382 262.649 5.77023 260.872 7.81828ZM256.234 11.4438C256.296 11.4966 256.363 11.5529 256.429 11.6214L256.054 12.4911L255.96 11.1381C256.02 11.263 256.12 11.3475 256.234 11.4438ZM254.551 11.8146C254.738 11.718 254.926 11.5247 255.114 11.2347L255.02 12.9744L255.02 12.9733C254.832 12.5869 254.644 12.2009 254.551 11.8146Z" fill="#EED350"/>
<path fill-rule="evenodd" clip-rule="evenodd" d="M193.102 7.94881C194.112 10.6549 191.182 12.6845 188.858 11.8145C188.151 13.7475 187.646 15.777 188.656 18H185.928C186.838 16.357 186.939 14.4242 185.928 12.1048C182.897 13.4578 179.967 10.0753 181.887 7.56256C180.068 5.72635 181.18 2.82687 184.009 2.82687C184.211 -0.942291 190.172 -0.942291 190.273 2.82687C193.304 2.34361 195.224 5.91947 193.102 7.9489L193.102 7.94881ZM188.454 11.6214C188.252 11.4281 188.05 11.3315 187.949 11.1381L188.05 12.4911L188.454 11.6214ZM187.04 11.2347C186.838 11.5247 186.635 11.718 186.434 11.8146C186.534 12.2012 186.737 12.5877 186.939 12.9744L187.04 11.2347Z" fill="#EED350"/>
<path d="M64.8899 11.1032C64.8603 11.7663 64.7232 12.4273 64.4798 13.0805C64.2915 13.5942 64.0139 14.0978 63.755 14.6038C63.615 14.8772 63.4805 15.1514 63.3689 15.428C63.0673 16.1745 62.9817 16.9447 63.4943 17.6759C63.5684 17.7818 63.2137 17.854 63.1115 17.7523C62.973 17.6138 62.8338 17.4684 62.7545 17.32C62.6743 17.1691 62.6156 17.016 62.5787 16.8614C62.5084 16.557 62.5076 16.2499 62.5764 15.9454C62.6473 15.612 62.77 15.2828 62.9132 14.9555C63.0432 14.6583 63.1906 14.3625 63.3309 14.0664C63.5198 13.6687 63.6888 13.269 63.8077 12.8649C63.9266 12.4608 63.9963 12.0566 64.042 11.6502C64.0902 11.2362 64.0987 10.8217 64.0675 10.4069C64.0511 10.1992 64.0259 9.99271 63.989 9.78609C63.9699 9.67877 63.9488 9.5713 63.9242 9.46411C63.9011 9.36343 63.8692 9.26871 63.895 9.16761C63.9442 8.97374 64.4514 8.93731 64.6061 9.12219C64.7379 9.28103 64.7405 9.46841 64.7733 9.63736C64.805 9.80257 64.8319 9.96792 64.8504 10.1335C64.888 10.4564 64.9012 10.7796 64.8899 11.1032Z" fill="#EED350"/>
<path d="M64.2074 10.1526C64.0648 9.09473 63.9279 7.97548 64.3417 6.99349C64.5326 6.55191 64.8251 6.16309 65.1948 5.85959C65.5644 5.5561 66.0004 5.34675 66.4663 5.24908C66.848 5.64022 66.8815 6.27839 66.6955 6.79521C66.5094 7.31203 66.1437 7.73785 65.7916 8.15716C65.4395 8.57647 65.0863 9.01672 64.933 9.54437C64.6354 10.569 65.1287 11.7901 64.5499 12.6829C64.4363 11.8394 64.3221 10.996 64.2074 10.1526Z" fill="#EED350"/>
<path d="M71.7374 8.43488C70.6375 7.98379 69.5223 7.52945 68.3754 7.48683C67.2284 7.44421 66.0263 7.86099 65.1951 8.94953C64.364 10.0381 64.0097 11.8825 64.5618 13.2669C64.7286 11.949 65.7476 11.1494 66.7095 10.9572C67.6715 10.7651 68.6584 10.9879 69.6192 10.7857C70.5801 10.5834 71.5927 9.75637 71.7374 8.43488Z" fill="#EED350"/>
<path d="M57.249 8.43488C58.3485 7.98379 59.4638 7.52945 60.6107 7.48683C61.7576 7.44421 62.9598 7.86099 63.7913 8.94953C64.6228 10.0381 64.9767 11.8825 64.4243 13.2669C64.2578 11.949 63.2385 11.1494 62.2769 10.9572C61.3153 10.7651 60.3277 10.9879 59.3668 10.7857C58.4059 10.5834 57.3934 9.75637 57.249 8.43488Z" fill="#EED350"/>
<path d="M62.6471 16.5869C62.7005 16.7628 62.7421 16.9422 62.7714 17.1237C62.8009 17.302 62.8096 17.4832 62.7976 17.6635C62.7859 17.841 62.7419 18.0147 62.6678 18.1759C62.5915 18.3371 62.482 18.4798 62.3466 18.5944C62.2135 18.7124 62.0417 18.7977 61.8896 18.9269C61.7375 19.0561 61.6285 19.2198 61.5176 19.3715C61.296 19.6755 61.0253 19.9426 60.756 20.2086C61.0426 19.9622 61.3317 19.7149 61.5791 19.4211C61.7014 19.2752 61.8181 19.1276 61.9625 19.0207C62.1069 18.9139 62.283 18.8411 62.4435 18.7194C62.6065 18.5996 62.7422 18.4457 62.8414 18.2683C62.9393 18.0894 63.0037 17.8937 63.0314 17.6912C63.0587 17.4921 63.063 17.2905 63.0441 17.0905C63.026 16.8938 62.9948 16.6986 62.9506 16.5062L62.6471 16.5869Z" fill="#EED350"/>
<path d="M65.5999 19.1305L64.8362 18.9622C64.7111 18.9368 64.5881 18.9018 64.4682 18.8574C64.3554 18.8149 64.2541 18.7459 64.1727 18.6561C64.0921 18.5672 64.0308 18.4591 63.969 18.3444C63.9089 18.2326 63.8559 18.117 63.8101 17.9985C63.7181 17.763 63.3549 17.6563 63.3158 17.4012L62.9212 17.8016C62.9877 18.0625 63.4703 17.852 63.5957 18.0966C63.6575 18.218 63.7268 18.3354 63.8031 18.448C63.877 18.5576 63.9578 18.6736 64.0641 18.7695C64.1696 18.8647 64.2957 18.9334 64.4323 18.97C64.561 19.0038 64.6922 19.0271 64.8246 19.0399L65.5999 19.1305Z" fill="#EED350"/>
<path d="M0.347942 10.7012C0.813167 11.7352 1.67751 12.5861 2.65399 13.1906C3.61529 13.7858 4.77933 14.1837 5.87825 13.9139C11.3077 12.5822 5.02615 4.13206 1.40376 6.37744C0.224535 7.10805 -0.233345 8.69443 0.112391 10.0305C0.171942 10.2602 0.250735 10.4845 0.347942 10.7012V10.7012Z" fill="#EED350"/>
<path fill-rule="evenodd" clip-rule="evenodd" d="M331.783 7.17605C331.749 7.29449 331.719 7.411 331.694 7.52562C331.13 7.38551 330.87 7.46998 330.811 7.53051L330.73 7.32605C330.664 7.05009 330.582 6.77836 330.493 6.51C330.403 6.54685 330.312 6.57426 330.22 6.59278C328.139 6.37133 328.172 5.05847 328.463 4.40804C327.904 3.93507 327.825 3.12106 328.102 2.46784C328.395 1.85918 329.019 1.42311 329.785 1.55761C329.795 1.14503 329.921 0.81441 330.117 0.565751C330.203 0.459653 330.305 0.360467 330.425 0.275696C330.61 0.147532 330.822 0.0640438 331.042 0.02523C331.134 0.00960465 331.232 0.000815221 331.335 -5.90003e-05C332.099 0.00112655 332.868 0.520349 332.918 1.55761C333.102 1.55761 333.271 1.58444 333.424 1.63334C334.6 2.19118 334.691 3.40012 333.881 4.22437C333.7 4.77539 333.64 5.14274 333.701 5.51009C333.478 5.62339 333.348 6.10802 333.245 6.49237C333.22 6.58579 333.196 6.67329 333.174 6.74809C332.84 6.87121 332.458 6.87935 332.069 6.72005C332.051 6.70847 332.033 6.69679 332.015 6.68526C331.975 6.65909 331.937 6.63371 331.894 6.61213L331.783 7.17605ZM330.8 6.3057C330.766 6.3348 330.731 6.36585 330.695 6.40359L330.897 6.88281L330.947 6.1373C330.915 6.2061 330.861 6.25266 330.8 6.3057ZM331.705 6.51002C331.604 6.45682 331.503 6.35027 331.402 6.19053L331.453 7.14911L331.453 7.14849C331.554 6.93562 331.655 6.72288 331.705 6.51002Z" fill="#EED350"/>
<path fill-rule="evenodd" clip-rule="evenodd" d="M325.867 10.9921C325.333 12.4833 326.88 13.6016 328.107 13.1222C328.48 14.1873 328.747 15.3057 328.214 16.5306H329.654C329.174 15.6252 329.12 14.5602 329.654 13.2822C331.254 14.0277 332.801 12.1639 331.788 10.7793C332.748 9.76752 332.161 8.16985 330.667 8.16985C330.561 6.09296 327.414 6.09296 327.36 8.16985C325.76 7.90356 324.746 9.87394 325.866 10.9922L325.867 10.9921ZM328.32 13.0158C328.427 12.9093 328.534 12.8561 328.587 12.7495L328.534 13.495L328.32 13.0158ZM329.067 12.8028C329.174 12.9625 329.281 13.0691 329.387 13.1223C329.334 13.3353 329.227 13.5483 329.12 13.7614L329.067 12.8028Z" fill="#EED350"/>
<path fill-rule="evenodd" clip-rule="evenodd" d="M331.969 12.9415C332.556 13.6239 333.559 13.9323 334.433 13.5818C334.905 14.9625 335.242 16.4122 334.568 18H336.387C335.781 16.8264 335.714 15.4458 336.387 13.7892C338.409 14.7556 340.363 12.3395 339.083 10.5447C340.295 9.23308 339.554 7.16202 337.668 7.16202C337.533 4.46976 333.558 4.46976 333.49 7.16202C332.674 7.02272 331.979 7.35559 331.533 7.89748C332.808 8.14848 333.239 9.60982 332.318 10.5663C332.937 11.3992 332.649 12.3993 331.969 12.9415ZM334.843 13.317C334.798 13.3547 334.751 13.3949 334.703 13.4438L334.973 14.0651L335.04 13.0987C334.996 13.1878 334.925 13.2482 334.843 13.317ZM336.05 13.5818C335.916 13.5128 335.781 13.3747 335.646 13.1677L335.714 14.4103L335.714 14.4095C335.849 14.1335 335.983 13.8577 336.05 13.5818Z" fill="#EED350"/>
<path fill-rule="evenodd" clip-rule="evenodd" d="M320.343 12.4457C318.38 13.2269 315.905 11.4044 316.759 8.97445L316.758 8.97453C314.966 7.15219 316.588 3.9412 319.148 4.37515C319.233 0.99059 324.268 0.99059 324.439 4.37515C326.131 4.37515 327.096 5.68065 326.969 7.02821C326.833 7.25591 326.749 7.53325 326.741 7.86023C325.056 7.58408 323.989 9.62744 325.169 10.7871L325.169 10.7871C324.919 11.4763 325.103 12.0887 325.499 12.5118C324.769 13.0128 323.799 13.1723 322.818 12.7064C321.964 14.7891 322.05 16.5246 322.818 18H320.513C321.367 16.0039 320.94 14.1814 320.343 12.4457ZM320.862 12.1128C320.805 12.1602 320.745 12.2108 320.684 12.2723L321.026 13.0533L321.111 11.8384C321.056 11.9505 320.965 12.0264 320.862 12.1128ZM322.391 12.4458C322.22 12.359 322.05 12.1854 321.879 11.9251L321.964 13.4872L321.965 13.4862C322.135 13.1393 322.306 12.7926 322.391 12.4458Z" fill="#EED350"/>
<path fill-rule="evenodd" clip-rule="evenodd" d="M340.12 11.2484C340.464 11.3059 340.825 11.2787 341.164 11.1479C341.6 12.3708 341.911 13.6548 341.289 15.0612H342.967C342.408 14.0217 342.346 12.7989 342.967 11.3316C344.832 12.1875 346.635 10.0476 345.454 8.45789C346.573 7.2962 345.889 5.46184 344.148 5.46184C344.024 3.07726 340.356 3.07726 340.294 5.46184C339.304 5.29955 338.507 5.86077 338.172 6.61516C338.175 6.65045 338.177 6.68619 338.179 6.72236C340.268 6.72236 341.089 9.01532 339.746 10.4674C339.926 10.7197 340.048 10.983 340.12 11.2484ZM341.543 10.9133C341.501 10.9468 341.457 10.9824 341.413 11.0257L341.662 11.576L341.724 10.72C341.684 10.799 341.618 10.8525 341.543 10.9133ZM342.656 11.1479C342.532 11.0869 342.408 10.9645 342.283 10.7811L342.346 11.8817L342.346 11.881C342.47 11.6366 342.594 11.3923 342.656 11.1479Z" fill="#EED350"/>
<path d="M335.875 3.31989C334.286 3.31989 334.009 4.66683 334.069 5.34031C336.092 3.87092 337.441 5.3403 337.862 6.25867C338.729 5.08316 339.668 5.03418 340.029 5.15663C340.029 4.71581 340.27 4.36071 340.391 4.23826C340.246 3.6505 339.488 3.38112 339.126 3.31989C339.126 2.29132 338.163 1.91173 337.681 1.8505C336.236 1.70356 335.875 2.76887 335.875 3.31989Z" fill="#EED350"/>
<defs>
<clipPath id="clip0_342_9">
<rect width="11" height="16" fill="white" transform="matrix(-1 0 0 1 132 2)"/>
</clipPath>
</defs>
</svg>
