<svg width="1244" height="50" viewBox="0 0 1244 50" fill="none" xmlns="http://www.w3.org/2000/svg">
<path fill-rule="evenodd" clip-rule="evenodd" d="M379.095 29.6719C369.659 24.6749 368.702 26.5661 363.778 17.2488C378.821 18.8696 378.821 21.841 379.368 29.5389" fill="white"/>
<path fill-rule="evenodd" clip-rule="evenodd" d="M378.93 39.6674C388.639 34.5352 389.596 36.4257 394.656 26.9717C379.34 28.5925 379.34 31.699 378.793 39.3948" fill="white"/>
<path fill-rule="evenodd" clip-rule="evenodd" d="M379.837 22.4484C386.811 18.8019 387.495 20.1524 391.05 13.3993C380.11 14.6146 380.11 16.7755 379.7 22.3147" fill="white"/>
<path fill-rule="evenodd" clip-rule="evenodd" d="M379.176 17.478C372.338 13.8314 371.518 15.1819 367.963 8.42883C378.903 9.50965 378.903 11.805 379.313 17.3443" fill="white"/>
<path d="M378.045 3C378.045 7.1866 379.107 10.6987 379.107 14.8853C379.298 24.3386 377.656 34.6044 377.656 43.9233H378.914C378.624 34.3341 380.171 23.9344 379.88 14.0749C379.685 10.1616 378.139 6.78175 378.045 3Z" fill="white"/>
<path fill-rule="evenodd" clip-rule="evenodd" d="M1003.41 32.6907C1004.99 36.97 1000.48 40.1235 997.105 38.7718C995.979 41.6998 995.303 45.0785 996.88 48.457H992.826C994.177 45.754 994.403 42.826 992.601 39.2223C988.096 41.2492 983.817 36.0692 986.745 32.0149C984.042 29.0869 985.618 24.5821 989.898 24.5821C990.123 18.726 999.132 18.726 999.357 24.8072C1003.86 23.906 1006.79 29.537 1003.41 32.6902L1003.41 32.6907ZM996.655 38.3217C996.204 38.0966 995.979 37.8712 995.754 37.6461L995.979 39.8985L996.654 38.3217L996.655 38.3217ZM994.402 37.8712C994.177 38.3217 993.727 38.5468 993.501 38.7723C993.726 39.4479 993.952 39.8985 994.177 40.5741L994.402 37.8711L994.402 37.8712Z" fill="white"/>
<path fill-rule="evenodd" clip-rule="evenodd" d="M959.287 24.0959C958.716 23.9993 958.104 24.0038 957.462 24.1322C957.222 17.6204 947.574 17.6204 947.333 23.8912C942.75 23.8912 941.062 28.715 943.956 31.8504C940.821 36.1919 945.403 41.7388 950.227 39.5683C952.157 43.4272 951.915 46.5626 950.468 49.457H954.81C953.121 45.8392 953.845 42.2213 955.051 39.0859C958.159 40.3294 962.157 38.0121 962.151 34.4288C958.799 32.412 957.021 27.952 959.287 24.0959ZM953.606 37.8831C953.847 38.1232 954.088 38.3638 954.568 38.6039L954.568 38.6039L953.844 40.2923L953.603 37.8804L953.606 37.8831ZM952.156 38.1225C952.156 38.1222 952.156 38.1218 952.156 38.1214L952.156 38.1213L952.156 38.1225ZM952.156 38.1225C951.988 38.4582 951.703 38.677 951.464 38.8604C951.36 38.9402 951.265 39.0132 951.191 39.0864C951.312 39.4482 951.433 39.7497 951.553 40.0513C951.674 40.3527 951.794 40.6542 951.915 41.0158L952.156 38.1225Z" fill="white"/>
<path fill-rule="evenodd" clip-rule="evenodd" d="M988.956 23.7456C984.84 24.1257 982.831 29.319 985.883 32.3707L985.882 32.3712C985.806 32.5766 985.744 32.7796 985.693 32.9798C983.595 34.3576 980.853 34.8013 978.392 33.8383C976.684 38.7201 975.463 43.8459 977.904 49.4601H971.314C973.511 45.3105 973.755 40.4291 971.314 34.5715C963.991 37.9885 956.913 29.4459 961.551 23.0997C957.157 18.4622 959.842 11.1394 966.677 11.1394C967.165 1.62019 981.565 1.62019 981.81 11.1394C988.978 9.94471 993.573 18.5731 988.956 23.7456ZM976.908 32.9019C977.07 33.0353 977.243 33.1776 977.416 33.3506L976.439 35.547L976.195 32.1301C976.353 32.4454 976.612 32.6588 976.908 32.9019ZM972.534 33.8384C973.022 33.5945 973.511 33.1062 973.999 32.374L973.755 36.7676L973.754 36.7648C973.266 35.7891 972.778 34.814 972.534 33.8384Z" fill="white"/>
<path fill-rule="evenodd" clip-rule="evenodd" d="M580.325 23.704C582.802 30.4121 575.619 35.4431 569.921 33.2866C568.187 38.0781 566.949 43.1091 569.426 48.6195H562.738C564.967 44.5467 565.215 39.7556 562.738 34.0063C555.307 37.36 548.123 28.9754 552.83 22.7465C548.371 18.1948 551.096 11.0074 558.032 11.0074C558.527 1.66419 573.141 1.66419 573.39 11.0074C580.821 9.80949 585.527 18.6736 580.326 23.7042L580.325 23.704ZM568.93 32.8079C568.435 32.3286 567.939 32.0892 567.692 31.6099L567.939 34.9637L568.93 32.8079ZM565.463 31.8494C564.967 32.568 564.472 33.0473 563.977 33.2867C564.224 34.2452 564.72 35.2032 565.215 36.1618L565.463 31.8494Z" fill="white"/>
<path fill-rule="evenodd" clip-rule="evenodd" d="M769.22 14.5965C768.387 15.4115 767.823 16.5483 767.746 18.007C762.838 18.007 760.911 23.0924 764.065 26.313C762.382 28.5404 762.848 31.1574 764.399 32.895C762.401 33.8816 759.987 34.1171 757.793 33.2866C756.058 38.0781 754.82 43.1091 757.297 48.6195H750.609C752.838 44.5467 753.086 39.7556 750.609 34.0063C743.178 37.36 735.994 28.9754 740.701 22.7465C736.242 18.1948 738.967 11.0074 745.903 11.0074C746.398 1.66419 761.012 1.66419 761.261 11.0074C764.779 10.4404 767.686 12.1281 769.22 14.5965ZM756.286 32.3675C756.45 32.4984 756.626 32.6381 756.802 32.8079L755.81 34.9637L755.563 31.6099C755.723 31.9194 755.986 32.1289 756.286 32.3675ZM751.848 33.2867C752.343 33.0473 752.838 32.568 753.334 31.8494L753.086 36.1618L753.085 36.159C752.59 35.2013 752.095 34.2443 751.848 33.2867Z" fill="white"/>
<path fill-rule="evenodd" clip-rule="evenodd" d="M785.007 27.4206C786.717 32.0511 781.758 35.5239 777.826 34.0353C776.629 37.3428 775.774 40.8156 777.484 44.6193H772.867C774.406 41.8079 774.577 38.5007 772.867 34.5321C767.737 36.8471 762.779 31.0594 766.028 26.7597C762.95 23.6178 764.831 18.6564 769.618 18.6564C769.96 12.207 780.048 12.207 780.22 18.6564C785.349 17.8295 788.598 23.9482 785.007 27.4208L785.007 27.4206ZM777.142 33.7049C776.799 33.3741 776.457 33.2088 776.287 32.8779L776.457 35.193L777.142 33.7049ZM774.748 33.0432C774.406 33.5393 774.064 33.8702 773.722 34.0354C773.893 34.697 774.235 35.3583 774.577 36.02L774.748 33.0432Z" fill="white"/>
<path d="M191.827 25.7379C191.758 27.2622 191.439 28.7818 190.872 30.2833C190.433 31.464 189.787 32.6218 189.183 33.7851C188.857 34.4135 188.544 35.0438 188.284 35.6796C187.581 37.3958 187.382 39.1661 188.576 40.847C188.749 41.0905 187.923 41.2563 187.684 41.0227C187.362 40.7043 187.038 40.3701 186.853 40.0288C186.666 39.6821 186.529 39.33 186.443 38.9748C186.28 38.2749 186.278 37.5689 186.438 36.8689C186.603 36.1026 186.889 35.3459 187.223 34.5934C187.526 33.9102 187.869 33.2302 188.195 32.5496C188.636 31.6353 189.029 30.7165 189.306 29.7876C189.583 28.8587 189.746 27.9294 189.852 26.9954C189.964 26.0435 189.984 25.0908 189.911 24.1373C189.873 23.6597 189.814 23.1851 189.729 22.7101C189.684 22.4634 189.635 22.2164 189.578 21.97C189.524 21.7385 189.449 21.5208 189.51 21.2884C189.624 20.8427 190.806 20.759 191.166 21.184C191.473 21.5491 191.479 21.9798 191.556 22.3682C191.629 22.748 191.692 23.1281 191.735 23.5089C191.823 24.251 191.854 24.994 191.827 25.7379Z" fill="white"/>
<path d="M190.238 23.5527C189.906 21.1209 189.587 18.548 190.551 16.2906C190.995 15.2755 191.677 14.3817 192.538 13.6841C193.399 12.9864 194.414 12.5052 195.5 12.2806C196.389 13.1798 196.467 14.6468 196.033 15.8348C195.6 17.0229 194.748 18.0018 193.928 18.9656C193.108 19.9295 192.285 20.9416 191.928 22.1546C191.235 24.5099 192.384 27.3169 191.036 29.3692C190.771 27.4304 190.505 25.4915 190.238 23.5527Z" fill="white"/>
<path d="M207.778 19.6041C205.216 18.5671 202.619 17.5227 199.947 17.4247C197.275 17.3268 194.475 18.2849 192.539 20.7872C190.603 23.2895 189.777 27.5295 191.063 30.7117C191.452 27.6822 193.826 25.8441 196.066 25.4024C198.307 24.9607 200.606 25.473 202.844 25.0081C205.083 24.5431 207.441 22.6419 207.778 19.6041Z" fill="white"/>
<path d="M174.028 19.6041C176.589 18.5671 179.187 17.5227 181.859 17.4247C184.531 17.3268 187.331 18.2849 189.268 20.7872C191.205 23.2895 192.029 27.5295 190.742 30.7117C190.355 27.6822 187.98 25.8441 185.74 25.4024C183.5 24.9607 181.2 25.473 178.961 25.0081C176.723 24.5431 174.364 22.6419 174.028 19.6041Z" fill="white"/>
<path d="M186.604 38.3437C186.728 38.748 186.825 39.1602 186.893 39.5777C186.962 39.9875 186.982 40.4039 186.954 40.8185C186.927 41.2264 186.824 41.6258 186.652 41.9964C186.474 42.3669 186.219 42.695 185.904 42.9584C185.594 43.2297 185.193 43.4257 184.839 43.7227C184.485 44.0198 184.231 44.3961 183.972 44.7447C183.456 45.4435 182.826 46.0577 182.198 46.6691C182.866 46.1027 183.54 45.5341 184.116 44.8588C184.401 44.5234 184.672 44.184 185.009 43.9384C185.345 43.6927 185.755 43.5256 186.13 43.2456C186.509 42.9702 186.825 42.6166 187.056 42.2087C187.284 41.7975 187.434 41.3477 187.499 40.882C187.562 40.4245 187.572 39.9611 187.529 39.5013C187.486 39.0492 187.414 38.6004 187.311 38.1582L186.604 38.3437Z" fill="white"/>
<path d="M193.482 44.1908L191.703 43.8039C191.412 43.7455 191.125 43.665 190.846 43.5629C190.583 43.4653 190.347 43.3068 190.158 43.1003C189.97 42.8958 189.827 42.6474 189.683 42.3837C189.543 42.1266 189.42 41.8611 189.313 41.5886C189.099 41.0473 188.253 40.8019 188.162 40.2156L187.242 41.136C187.397 41.7358 188.521 41.2517 188.814 41.8142C188.958 42.0932 189.119 42.363 189.297 42.6219C189.469 42.8738 189.657 43.1405 189.905 43.3609C190.15 43.5797 190.444 43.7376 190.762 43.8219C191.062 43.8995 191.368 43.9532 191.676 43.9826L193.482 44.1908Z" fill="white"/>
<path d="M0.784095 31.4339C1.83249 33.7767 3.7803 35.7047 5.98083 37.0742C8.14715 38.4228 10.7703 39.3244 13.2468 38.713C25.4821 35.6959 11.3266 16.5499 3.16341 21.6374C0.505996 23.2928 -0.525848 26.8871 0.253276 29.9142C0.387476 30.4347 0.565037 30.943 0.784095 31.4339V31.4339Z" fill="white"/>
<path fill-rule="evenodd" clip-rule="evenodd" d="M1194.38 6.70643C1193.61 8.48661 1193.83 10.7095 1195.38 11.9999C1194.57 13.7704 1194.48 17.3439 1200.24 17.9471C1200.5 17.8967 1200.75 17.822 1201 17.7217C1201.24 18.4511 1201.47 19.1897 1201.65 19.9398L1201.88 20.4999C1202.04 20.3352 1202.76 20.1052 1204.32 20.4864C1204.39 20.1723 1204.48 19.8529 1204.57 19.5282L1204.88 17.9999C1205 18.0586 1205.1 18.1277 1205.21 18.1989C1205.26 18.2304 1205.31 18.2622 1205.36 18.2938C1206.44 18.7272 1207.49 18.7049 1208.42 18.3695C1208.48 18.166 1208.55 17.928 1208.62 17.6739C1208.9 16.6276 1209.26 15.3083 1209.88 14.9999C1209.71 13.9999 1209.88 12.9999 1210.38 11.4999C1212.62 9.25608 1212.37 5.96509 1209.11 4.44654C1208.69 4.31329 1208.22 4.24019 1207.71 4.24019C1207.57 1.42506 1205.46 0.0116447 1203.35 -4.89062e-05C1203.04 0.00153178 1202.74 0.0286847 1202.47 0.0776298C1201.9 0.182751 1201.35 0.394465 1200.87 0.712773C1200.5 0.9595 1200.19 1.25419 1199.93 1.5704C1199.4 2.24378 1199.07 3.13371 1199.04 4.24019C1196.92 3.87493 1195.2 5.05558 1194.38 6.70643ZM1201.85 17.1655C1201.75 17.2447 1201.66 17.3293 1201.56 17.432L1202.12 18.7365L1202.26 16.7071C1202.17 16.8944 1202.02 17.0211 1201.85 17.1655ZM1204.35 17.7217C1204.07 17.5769 1203.79 17.2869 1203.51 16.852L1203.65 19.4615L1203.66 19.4598C1203.94 18.8803 1204.21 18.3012 1204.35 17.7217Z" fill="white"/>
<path fill-rule="evenodd" clip-rule="evenodd" d="M1188.19 29.9231C1186.71 33.9823 1191 37.0266 1194.39 35.7217C1195.43 38.6211 1196.16 41.6654 1194.69 44.9999H1198.67C1197.35 42.5353 1197.2 39.6362 1198.67 36.1572C1203.1 38.1866 1207.39 33.1129 1204.58 29.3437C1207.24 26.5894 1205.61 22.2402 1201.48 22.2402C1201.18 16.5864 1192.47 16.5864 1192.32 22.2402C1187.89 21.5153 1185.09 26.8791 1188.19 29.9232L1188.19 29.9231ZM1194.98 35.432C1195.28 35.142 1195.57 34.9971 1195.72 34.7071L1195.57 36.7365L1194.98 35.432ZM1197.05 34.852C1197.35 35.2869 1197.64 35.5769 1197.94 35.7217C1197.79 36.3017 1197.49 36.8814 1197.2 37.4615L1197.05 34.852Z" fill="white"/>
<path fill-rule="evenodd" clip-rule="evenodd" d="M1205.08 35.2291C1206.71 37.087 1209.49 37.9268 1211.91 36.9726C1213.21 40.7311 1214.14 44.6775 1212.28 48.9999H1217.32C1215.64 45.8051 1215.45 42.0469 1217.32 37.5371C1222.91 40.1678 1228.32 33.5908 1224.78 28.7049C1228.13 25.1344 1226.08 19.4966 1220.86 19.4966C1220.49 12.1676 1209.48 12.1676 1209.29 19.4966C1207.04 19.1173 1205.11 20.0236 1203.88 21.4989C1207.4 22.1826 1208.6 26.1603 1206.05 28.7639C1207.76 31.0309 1206.97 33.753 1205.08 35.2291ZM1213.04 36.2516C1212.92 36.3543 1212.78 36.4639 1212.65 36.5971L1213.4 38.2881L1213.59 35.6574C1213.46 35.9002 1213.27 36.0645 1213.04 36.2516ZM1216.38 36.9727C1216.01 36.7849 1215.64 36.4089 1215.26 35.8452L1215.45 39.2279L1215.45 39.2257C1215.82 38.4745 1216.2 37.7238 1216.38 36.9727Z" fill="white"/>
<path fill-rule="evenodd" clip-rule="evenodd" d="M1172.9 33.8798C1167.47 36.0064 1160.61 31.0452 1162.98 24.4303L1162.98 24.4305C1158.02 19.4697 1162.5 10.7287 1169.59 11.91C1169.83 2.69647 1183.77 2.69647 1184.24 11.91C1188.92 11.91 1191.59 15.4636 1191.24 19.1318C1190.87 19.7517 1190.63 20.5069 1190.61 21.3972C1185.95 20.6455 1182.99 26.2079 1186.26 29.3648L1186.26 29.3647C1185.57 31.2409 1186.08 32.908 1187.17 34.0599C1185.15 35.4237 1182.47 35.8578 1179.75 34.5895C1177.39 40.259 1177.62 44.9835 1179.75 48.9998H1173.37C1175.73 43.566 1174.55 38.6048 1172.9 33.8798ZM1174.34 32.9735C1174.18 33.1026 1174.01 33.2403 1173.84 33.4077L1174.79 35.5336L1175.03 32.2264C1174.87 32.5316 1174.62 32.7382 1174.34 32.9735ZM1178.57 33.8799C1178.1 33.6439 1177.62 33.1712 1177.15 32.4626L1177.39 36.715L1177.39 36.7123C1177.86 35.768 1178.33 34.8242 1178.57 33.8799Z" fill="white"/>
<path fill-rule="evenodd" clip-rule="evenodd" d="M1227.65 30.6207C1228.6 30.7772 1229.6 30.7031 1230.54 30.3471C1231.75 33.6761 1232.61 37.1715 1230.89 40.9999H1235.53C1233.98 38.1702 1233.81 34.8415 1235.53 30.8471C1240.69 33.1772 1245.69 27.3518 1242.42 23.0243C1245.51 19.8619 1243.62 14.8684 1238.8 14.8684C1238.46 8.37704 1228.3 8.37704 1228.13 14.8684C1225.39 14.4266 1223.18 15.9545 1222.26 18.0082C1222.26 18.1042 1222.27 18.2014 1222.28 18.2998C1228.06 18.2998 1230.33 24.5417 1226.61 28.4947C1227.11 29.1814 1227.45 29.8983 1227.65 30.6207ZM1231.59 29.7086C1231.47 29.7995 1231.35 29.8966 1231.23 30.0145L1231.92 31.5123L1232.09 29.1822C1231.98 29.3973 1231.8 29.5428 1231.59 29.7086ZM1234.67 30.3472C1234.33 30.1809 1233.98 29.8479 1233.64 29.3486L1233.81 32.3447L1233.81 32.3427C1234.16 31.6774 1234.5 31.0125 1234.67 30.3472Z" fill="white"/>
<path d="M1215.9 9.03736C1211.5 9.03736 1210.73 12.704 1210.9 14.5374C1216.5 10.5374 1220.23 14.5374 1221.4 17.0374C1223.8 13.8374 1226.4 13.704 1227.4 14.0374C1227.4 12.8374 1228.06 11.8707 1228.4 11.5374C1228 9.93735 1225.9 9.20403 1224.9 9.03736C1224.9 6.23737 1222.23 5.20403 1220.9 5.03736C1216.9 4.63736 1215.9 7.53736 1215.9 9.03736Z" fill="white"/>
</svg>
