<svg width="30" height="31" viewBox="0 0 30 31" fill="none" xmlns="http://www.w3.org/2000/svg">
<g clip-path="url(#clip0_133_2454)">
<path d="M26.7857 0.618164H3.21429C1.43973 0.618164 0 2.0579 0 3.83245V27.4039C0 29.1784 1.43973 30.6182 3.21429 30.6182H26.7857C28.5603 30.6182 30 29.1784 30 27.4039V3.83245C30 2.0579 28.5603 0.618164 26.7857 0.618164ZM23.5112 11.2521C23.5246 11.4396 23.5246 11.6338 23.5246 11.8213C23.5246 17.6271 19.1049 24.3168 11.029 24.3168C8.53795 24.3168 6.22768 23.5936 4.28571 22.3481C4.64062 22.3883 4.98214 22.4016 5.34375 22.4016C7.39955 22.4016 9.28795 21.7052 10.7946 20.5266C8.86607 20.4865 7.24554 19.2208 6.68973 17.4798C7.36607 17.5802 7.97545 17.5802 8.67188 17.3994C6.66295 16.9909 5.15625 15.2231 5.15625 13.0869V13.0333C5.73884 13.3615 6.42187 13.5624 7.13839 13.5891C6.536 13.1885 6.04218 12.6449 5.70098 12.0069C5.35979 11.3689 5.18185 10.6564 5.18304 9.9329C5.18304 9.11593 5.39732 8.36593 5.77902 7.71638C7.94196 10.3816 11.1897 12.1226 14.8326 12.3101C14.2098 9.33022 16.4397 6.91281 19.1183 6.91281C20.3839 6.91281 21.5223 7.44182 22.3259 8.29897C23.317 8.11147 24.2679 7.74316 25.1116 7.24093C24.7835 8.25879 24.0938 9.11593 23.183 9.65834C24.067 9.56459 24.9241 9.31682 25.7143 8.97531C25.1183 9.85254 24.3683 10.6293 23.5112 11.2521Z" fill="white"/>
</g>
<defs>
<clipPath id="clip0_133_2454">
<rect width="30.0005" height="30" fill="white" transform="translate(0 0.618164)"/>
</clipPath>
</defs>
</svg>
