<svg width="31" height="31" viewBox="0 0 31 31" fill="none" xmlns="http://www.w3.org/2000/svg">
<g clip-path="url(#clip0_133_2456)">
<path d="M7.10286 1.27405H24.6029C26.15 1.27405 27.6337 1.88863 28.7277 2.98259C29.8216 4.07655 30.4362 5.56028 30.4362 7.10738V24.6074C30.4362 26.1545 29.8216 27.6382 28.7277 28.7322C27.6337 29.8261 26.15 30.4407 24.6029 30.4407H7.10286C5.55577 30.4407 4.07204 29.8261 2.97808 28.7322C1.88411 27.6382 1.26953 26.1545 1.26953 24.6074V7.10738C1.26953 5.56028 1.88411 4.07655 2.97808 2.98259C4.07204 1.88863 5.55577 1.27405 7.10286 1.27405Z" fill="white"/>
<path d="M20.1157 10.7917H11.5902C9.91753 10.7917 8.56128 12.1334 8.56128 13.7872V18.0017C8.56128 19.657 9.91753 20.9972 11.5902 20.9972H20.1157C21.7884 20.9972 23.1446 19.6555 23.1446 18.0017V13.7872C23.1446 12.132 21.7884 10.7917 20.1157 10.7917ZM18.0682 16.1001L14.0796 17.9813C14.0552 17.9929 14.0283 17.9981 14.0014 17.9964C13.9744 17.9948 13.9483 17.9864 13.9255 17.972C13.9027 17.9576 13.8839 17.9377 13.8708 17.9141C13.8577 17.8905 13.8508 17.8639 13.8507 17.837V13.9578C13.8509 13.9305 13.8581 13.9036 13.8716 13.8799C13.8852 13.8561 13.9045 13.8362 13.9279 13.822C13.9513 13.8079 13.9779 13.7999 14.0052 13.7989C14.0325 13.7979 14.0596 13.8039 14.084 13.8163L18.0711 15.8142C18.0973 15.828 18.1192 15.8486 18.1344 15.874C18.1496 15.8994 18.1575 15.9285 18.1572 15.9581C18.1569 15.9876 18.1484 16.0166 18.1327 16.0416C18.117 16.0667 18.0946 16.0869 18.0682 16.1001Z" fill="#1E3932"/>
</g>
<defs>
<clipPath id="clip0_133_2456">
<rect width="30" height="30" fill="white" transform="translate(0.667236 0.618164)"/>
</clipPath>
</defs>
</svg>
